<svg width="21" height="21" viewBox="0 0 21 21" fill="none" xmlns="http://www.w3.org/2000/svg">
<path d="M15.3955 9.56538C16.7975 9.56538 17.9349 8.42883 17.9349 7.02678C17.9349 5.62474 16.7975 4.48819 15.3955 4.48819" stroke="#6B788E" stroke-width="1.2" stroke-linecap="round" stroke-linejoin="round"/>
<path d="M16.5629 12.3242C16.9816 12.353 17.3979 12.4124 17.8078 12.5046C18.3772 12.6161 19.0622 12.8495 19.3061 13.3604C19.4617 13.6877 19.4617 14.0687 19.3061 14.3967C19.063 14.9077 18.3772 15.1403 17.8078 15.2574" stroke="#6B788E" stroke-width="1.2" stroke-linecap="round" stroke-linejoin="round"/>
<path d="M5.50375 9.56538C4.10171 9.56538 2.96436 8.42883 2.96436 7.02678C2.96436 5.62474 4.10171 4.48819 5.50375 4.48819" stroke="#6B788E" stroke-width="1.2" stroke-linecap="round" stroke-linejoin="round"/>
<path d="M4.33631 12.3242C3.91762 12.353 3.50134 12.4124 3.09148 12.5046C2.522 12.6161 1.83702 12.8495 1.59399 13.3604C1.43758 13.6877 1.43758 14.0687 1.59399 14.3967C1.83622 14.9077 2.522 15.1403 3.09148 15.2574" stroke="#6B788E" stroke-width="1.2" stroke-linecap="round" stroke-linejoin="round"/>
<path fill-rule="evenodd" clip-rule="evenodd" d="M10.4455 12.8708C13.2865 12.8708 15.7136 13.3008 15.7136 15.0212C15.7136 16.7409 13.3025 17.1869 10.4455 17.1869C7.60373 17.1869 5.17743 16.7569 5.17743 15.0365C5.17743 13.316 7.58849 12.8708 10.4455 12.8708Z" stroke="#6B788E" stroke-width="1.2" stroke-linecap="round" stroke-linejoin="round"/>
<path fill-rule="evenodd" clip-rule="evenodd" d="M10.4455 10.4168C8.57188 10.4168 7.06958 8.9145 7.06958 7.04003C7.06958 5.16636 8.57188 3.66406 10.4455 3.66406C12.3192 3.66406 13.8215 5.16636 13.8215 7.04003C13.8215 8.9145 12.3192 10.4168 10.4455 10.4168Z" stroke="#6B788E" stroke-width="1.2" stroke-linecap="round" stroke-linejoin="round"/>
</svg>
