<svg width="18" height="18" viewBox="0 0 18 18" fill="none" xmlns="http://www.w3.org/2000/svg">
<path d="M7.45759 1.51869L1.91442 6.04324C1.29051 6.54868 0.890572 7.61667 1.02655 8.4156L2.09039 14.9048C2.28236 16.0625 3.37019 17 4.52202 17H13.4807C14.6245 17 15.7203 16.0543 15.9123 14.9048L16.9761 8.4156C17.1041 7.61667 16.7042 6.54868 16.0883 6.04324L10.5451 1.52685C9.68924 0.825752 8.30546 0.825744 7.45759 1.51869Z" stroke="#6B788E" stroke-width="1.3" stroke-linecap="round" stroke-linejoin="round"/>
<path d="M9.00128 11.8558C10.1057 11.8558 11.001 10.9434 11.001 9.81775C11.001 8.69215 10.1057 7.77966 9.00128 7.77966C7.89688 7.77966 7.00159 8.69215 7.00159 9.81775C7.00159 10.9434 7.89688 11.8558 9.00128 11.8558Z" stroke="#6B788E" stroke-width="1.3" stroke-linecap="round" stroke-linejoin="round"/>
</svg>
