<svg width="16" height="18" viewBox="0 0 16 18" fill="none" xmlns="http://www.w3.org/2000/svg">
<path fill-rule="evenodd" clip-rule="evenodd" d="M9.86926 0.0672913C9.90789 0.0672913 9.94576 0.0705433 9.98261 0.0767884L10.1057 0.0775435C10.2892 0.0775435 10.4645 0.152187 10.5922 0.284388L15.1473 5.03012C15.2678 5.15512 15.3354 5.3233 15.3354 5.49686V13.7401C15.3514 15.9965 13.5942 17.8401 11.3342 17.9318L4.1225 17.9327H4.02447C1.82118 17.8829 0.0541055 16.101 0.000271444 13.9192L0 4.10561C0.0521607 1.87439 1.89487 0.0775435 4.10991 0.0775435L9.75591 0.0767884C9.79277 0.0705433 9.83064 0.0672913 9.86926 0.0672913ZM9.19468 1.42617L4.11171 1.42653C2.62153 1.42653 1.38406 2.63342 1.34898 4.1218V13.7401C1.31571 15.2806 2.5298 16.5495 4.05505 16.5837H11.3072C12.8082 16.5217 13.9971 15.2743 13.9863 13.7455L13.9863 6.34726L12.1787 6.34816C10.533 6.34367 9.19477 5.00188 9.19477 3.35791L9.19468 1.42617ZM9.70127 11.406C10.0736 11.406 10.3758 11.7082 10.3758 12.0805C10.3758 12.4529 10.0736 12.755 9.70127 12.755H4.84492C4.4726 12.755 4.17043 12.4529 4.17043 12.0805C4.17043 11.7082 4.4726 11.406 4.84492 11.406H9.70127ZM7.86224 8.03179C8.23456 8.03179 8.53673 8.33396 8.53673 8.70628C8.53673 9.0786 8.23456 9.38077 7.86224 9.38077H4.84411C4.47179 9.38077 4.16962 9.0786 4.16962 8.70628C4.16962 8.33396 4.47179 8.03179 4.84411 8.03179H7.86224ZM10.5437 2.1825L10.5438 3.35791C10.5438 4.26084 11.2785 4.99648 12.1805 4.99918L13.247 4.99828L10.5437 2.1825Z" fill="#6B788E"/>
</svg>
